<svg width="28" height="29" viewBox="0 0 28 29" fill="none" xmlns="http://www.w3.org/2000/svg">
<g clip-path="url(#clip0_309_103)">
<path d="M14 29C10.287 29 6.72601 27.5558 4.10051 24.985C1.475 22.4143 0 18.9276 0 15.292H28C28 18.9276 26.525 22.4143 23.8995 24.985C21.274 27.5558 17.713 29 14 29V29Z" fill="#5E00F5"/>
<path d="M26.4674 13.7056C26.4203 10.4981 25.0859 7.43755 22.7527 5.18564C20.4195 2.93373 17.2749 1.67133 13.9987 1.67133C10.7225 1.67133 7.57797 2.93373 5.24476 5.18564C2.91156 7.43755 1.57717 10.4981 1.53004 13.7056H0C0 10.07 1.475 6.5833 4.10051 4.01255C6.72601 1.44181 10.287 -0.00242552 14 -0.00242552C17.713 -0.00242552 21.274 1.44181 23.8995 4.01255C26.525 6.5833 28 10.07 28 13.7056H26.4674Z" fill="#FF7966"/>
<path d="M14 3.43089C16.7825 3.43356 19.4503 4.51685 21.418 6.44307C23.3857 8.3693 24.4928 10.9811 24.4962 13.7056H22.9635C22.9237 11.4033 21.9616 9.2086 20.2847 7.59431C18.6078 5.98002 16.3504 5.07541 13.9987 5.07541C11.6471 5.07541 9.38965 5.98002 7.71277 7.59431C6.03588 9.2086 5.07384 11.4033 5.03395 13.7056H3.50391C3.50732 10.9811 4.61434 8.3693 6.58208 6.44307C8.54982 4.51685 11.2176 3.43356 14 3.43089V3.43089Z" fill="#FFD2CC"/>
</g>
<defs>
<clipPath id="clip0_309_103">
<rect width="28" height="29" fill="white" transform="matrix(1 0 0 -1 0 29)"/>
</clipPath>
</defs>
</svg>
