<svg width="178" height="29" viewBox="0 0 178 29" fill="none" xmlns="http://www.w3.org/2000/svg">
<g clip-path="url(#clip0_66_2523)">
<path d="M14 29C10.287 29 6.72601 27.5558 4.10051 24.985C1.475 22.4143 0 18.9276 0 15.292H28C28 18.9276 26.525 22.4143 23.8995 24.985C21.274 27.5558 17.713 29 14 29V29Z" fill="#5E00F5"/>
<path d="M26.4674 13.7056C26.4203 10.4981 25.0859 7.43755 22.7527 5.18564C20.4195 2.93373 17.2749 1.67133 13.9987 1.67133C10.7225 1.67133 7.57797 2.93373 5.24476 5.18564C2.91156 7.43755 1.57717 10.4981 1.53004 13.7056H0C0 10.07 1.475 6.5833 4.10051 4.01255C6.72601 1.44181 10.287 -0.00242552 14 -0.00242552C17.713 -0.00242552 21.274 1.44181 23.8995 4.01255C26.525 6.5833 28 10.07 28 13.7056H26.4674Z" fill="#FF7966"/>
<path d="M14 3.43089C16.7825 3.43356 19.4503 4.51685 21.418 6.44307C23.3857 8.3693 24.4928 10.9811 24.4962 13.7056H22.9635C22.9237 11.4033 21.9616 9.2086 20.2847 7.59431C18.6078 5.98002 16.3504 5.07541 13.9987 5.07541C11.6471 5.07541 9.38965 5.98002 7.71277 7.59431C6.03588 9.2086 5.07384 11.4033 5.03395 13.7056H3.50391C3.50732 10.9811 4.61434 8.3693 6.58208 6.44307C8.54982 4.51685 11.2176 3.43356 14 3.43089V3.43089Z" fill="#FFD2CC"/>
</g>
<path d="M46.6811 23.5395V8.55972H41.1874V5.46046H55.7296V8.55972H50.2359V23.5395H46.6811Z" fill="white"/>
<path d="M58.1691 23.5395V5.46046H66.3558C67.5407 5.46046 68.573 5.65847 69.4528 6.05448C70.3325 6.4505 71.0147 7.01009 71.4994 7.73325C71.9842 8.45641 72.2265 9.30871 72.2265 10.2901V10.6001C72.2265 11.6848 71.9572 12.5629 71.4186 13.2344C70.88 13.906 70.2158 14.3967 69.4258 14.7066V15.1715C70.144 15.2059 70.7005 15.447 71.0955 15.8946C71.4905 16.3251 71.6879 16.9019 71.6879 17.6251V23.5395H68.1332V18.1158C68.1332 17.7025 68.0165 17.3668 67.7831 17.1085C67.5676 16.8503 67.1996 16.7211 66.679 16.7211H61.7238V23.5395H58.1691ZM61.7238 13.6219H65.9788C66.8226 13.6219 67.4779 13.4066 67.9447 12.9762C68.4294 12.5285 68.6718 11.9431 68.6718 11.2199V10.9617C68.6718 10.2385 68.4384 9.66168 67.9716 9.23123C67.5048 8.78356 66.8405 8.55972 65.9788 8.55972H61.7238V13.6219Z" fill="white"/>
<path d="M73.9105 23.5395L78.8656 5.46046H85.0595L90.0147 23.5395H86.3522L85.3288 19.5621H78.5963L77.573 23.5395H73.9105ZM79.4312 16.4112H84.494L82.2049 7.60411H81.7202L79.4312 16.4112Z" fill="white"/>
<path d="M99.2954 23.9011C96.9615 23.9011 95.1123 23.2812 93.7478 22.0415C92.3834 20.7846 91.7011 18.9939 91.7011 16.6695V12.3305C91.7011 10.006 92.3834 8.22397 93.7478 6.98426C95.1123 5.72734 96.9615 5.09888 99.2954 5.09888C101.611 5.09888 103.398 5.71012 104.654 6.93261C105.929 8.13788 106.567 9.79943 106.567 11.9173V12.0722H103.066V11.8139C103.066 10.7464 102.751 9.8683 102.123 9.17957C101.513 8.49085 100.57 8.14649 99.2954 8.14649C98.0387 8.14649 97.0512 8.51668 96.3331 9.25706C95.615 9.99743 95.2559 11.0047 95.2559 12.2788V16.7211C95.2559 17.978 95.615 18.9853 96.3331 19.7429C97.0512 20.4833 98.0387 20.8535 99.2954 20.8535C100.57 20.8535 101.513 20.5091 102.123 19.8204C102.751 19.1144 103.066 18.2363 103.066 17.186V16.7211H106.567V17.0827C106.567 19.2005 105.929 20.8707 104.654 22.0932C103.398 23.2984 101.611 23.9011 99.2954 23.9011Z" fill="white"/>
<path d="M109.482 23.5395V5.46046H113.036V12.6404H113.521L119.634 5.46046H124.185L116.322 14.3708L124.455 23.5395H119.769L113.521 16.2046H113.036V23.5395H109.482Z" fill="white"/>
<path d="M126.358 23.5395V5.46046H129.913V23.5395H126.358Z" fill="white"/>
<path d="M132.939 23.5395V19.2005L142.257 8.9213V8.50807H133.208V5.46046H145.973V9.79943L136.655 20.0787V20.4919H146.027V23.5395H132.939Z" fill="white"/>
<path d="M149.012 23.5395V5.46046H161.131V8.55972H152.567V12.8729H160.377V15.9721H152.567V20.4402H161.292V23.5395H149.012Z" fill="white"/>
<path d="M163.943 23.5395V5.46046H172.129C173.314 5.46046 174.347 5.65847 175.226 6.05448C176.106 6.4505 176.788 7.01009 177.273 7.73325C177.758 8.45641 178 9.30871 178 10.2901V10.6001C178 11.6848 177.731 12.5629 177.192 13.2344C176.654 13.906 175.989 14.3967 175.199 14.7066V15.1715C175.917 15.2059 176.474 15.447 176.869 15.8946C177.264 16.3251 177.461 16.9019 177.461 17.6251V23.5395H173.907V18.1158C173.907 17.7025 173.79 17.3668 173.557 17.1085C173.341 16.8503 172.973 16.7211 172.452 16.7211H167.497V23.5395H163.943ZM167.497 13.6219H171.752C172.596 13.6219 173.251 13.4066 173.718 12.9762C174.203 12.5285 174.445 11.9431 174.445 11.2199V10.9617C174.445 10.2385 174.212 9.66168 173.745 9.23123C173.278 8.78356 172.614 8.55972 171.752 8.55972H167.497V13.6219Z" fill="white"/>
<defs>
<clipPath id="clip0_66_2523">
<rect width="28" height="29" fill="white" transform="matrix(1 0 0 -1 0 29)"/>
</clipPath>
</defs>
</svg>
