<svg width="61" height="65" viewBox="0 0 61 65" fill="none" xmlns="http://www.w3.org/2000/svg">
<g clip-path="url(#clip0_66_2516)">
<path d="M30.3596 65C22.3077 65 14.5856 61.7629 8.89211 56.0009C3.19859 50.2389 0 42.4239 0 34.2752H60.7191C60.7191 42.4239 57.5205 50.2389 51.827 56.0009C46.1335 61.7629 38.4114 65 30.3596 65V65Z" fill="#5E00F5"/>
<path d="M57.3956 30.7192C57.2934 23.53 54.3997 16.6702 49.34 11.6229C44.2804 6.57547 37.4613 3.74595 30.3568 3.74595C23.2522 3.74595 16.4331 6.57547 11.3735 11.6229C6.31383 16.6702 3.42014 23.53 3.31795 30.7192H0C0 22.5705 3.19859 14.7555 8.89211 8.99352C14.5856 3.2315 22.3077 -0.00556946 30.3596 -0.00556946C38.4114 -0.00556946 46.1335 3.2315 51.827 8.99352C57.5205 14.7555 60.7191 22.5705 60.7191 30.7192H57.3956Z" fill="#FF7966"/>
<path d="M30.3597 7.68979C36.3935 7.69579 42.1787 10.1238 46.4458 14.4412C50.7129 18.7586 53.1135 24.6128 53.1209 30.7192H49.7974C49.7109 25.5591 47.6247 20.6398 43.9883 17.0216C40.3519 13.4034 35.4564 11.3758 30.3569 11.3758C25.2573 11.3758 20.3619 13.4034 16.7255 17.0216C13.0891 20.6398 11.0028 25.5591 10.9163 30.7192H7.59839C7.60579 24.6128 10.0064 18.7586 14.2735 14.4412C18.5407 10.1238 24.3258 7.69579 30.3597 7.68979Z" fill="#FFD2CC"/>
</g>
<defs>
<clipPath id="clip0_66_2516">
<rect width="60.7191" height="65" fill="white" transform="matrix(1 0 0 -1 0 65)"/>
</clipPath>
</defs>
</svg>
